<?xml version="1.0" encoding="UTF-8" standalone="no"?>
<!DOCTYPE svg PUBLIC "-//W3C//DTD SVG 1.1//EN" "http://www.w3.org/Graphics/SVG/1.1/DTD/svg11.dtd">
<svg width="100%" height="100%" viewBox="0 0 1028 418" version="1.1" xmlns="http://www.w3.org/2000/svg" xmlns:xlink="http://www.w3.org/1999/xlink" xml:space="preserve" xmlns:serif="http://www.serif.com/" style="fill-rule:evenodd;clip-rule:evenodd;stroke-linecap:round;stroke-linejoin:round;stroke-miterlimit:1.5;">
    <g transform="matrix(1,0,0,1,-264.561,-1020.63)">
        <g transform="matrix(1,0,0,1,-9.44882,751.061)">
            <g transform="matrix(0.7,0,0,0.7,551.28,-50.7874)">
                <g transform="matrix(0.833333,0,0,0.833333,-251.828,131.609)">
                    <circle cx="1452.76" cy="744.094" r="35.433" style="fill:rgb(93,155,182);stroke:black;stroke-width:1.71px;"/>
                </g>
                <g transform="matrix(0.833333,0,0,0.833333,-307.087,-59.0551)">
                    <circle cx="1452.76" cy="744.094" r="35.433" style="fill:rgb(93,155,182);stroke:black;stroke-width:1.71px;"/>
                </g>
                <g transform="matrix(0.833333,0,0,0.833333,-205.427,211.755)">
                    <circle cx="1452.76" cy="744.094" r="35.433" style="fill:rgb(93,155,182);stroke:black;stroke-width:1.71px;"/>
                </g>
                <g transform="matrix(0.833333,0,0,0.833333,-234.955,30.3712)">
                    <circle cx="1452.76" cy="744.094" r="35.433" style="fill:rgb(93,155,182);stroke:black;stroke-width:1.71px;"/>
                </g>
                <g transform="matrix(0.833333,0,0,0.833333,-281.355,258.155)">
                    <circle cx="1452.76" cy="744.094" r="35.433" style="fill:rgb(213,94,0);stroke:black;stroke-width:1.71px;"/>
                </g>
                <g transform="matrix(0.833333,0,0,0.833333,-673.228,295.276)">
                    <circle cx="1452.76" cy="744.094" r="35.433" style="fill:rgb(245,195,68);stroke:black;stroke-width:1.71px;"/>
                </g>
                <g transform="matrix(0.833333,0,0,0.833333,-555.54,367.829)">
                    <circle cx="1452.76" cy="744.094" r="35.433" style="fill:rgb(245,195,68);stroke:black;stroke-width:1.71px;"/>
                </g>
                <g transform="matrix(0.833333,0,0,0.833333,-600.028,242.913)">
                    <circle cx="1452.76" cy="744.094" r="35.433" style="fill:rgb(245,195,68);stroke:black;stroke-width:1.71px;"/>
                </g>
                <g transform="matrix(0.833333,0,0,0.833333,-655.512,59.8988)">
                    <circle cx="1452.76" cy="744.094" r="35.433" style="fill:rgb(245,195,68);stroke:black;stroke-width:1.71px;"/>
                </g>
                <g transform="matrix(0.833333,0,0,0.833333,-614.595,165.354)">
                    <circle cx="1452.76" cy="744.094" r="35.433" style="fill:rgb(245,195,68);stroke:black;stroke-width:1.71px;"/>
                </g>
                <g transform="matrix(0.833333,0,0,0.833333,-560.067,53.1496)">
                    <circle cx="1452.76" cy="744.094" r="35.433" style="fill:rgb(245,195,68);stroke:black;stroke-width:1.71px;"/>
                </g>
                <g transform="matrix(0.833333,0,0,0.833333,-382.593,89.4263)">
                    <circle cx="1452.76" cy="744.094" r="35.433" style="fill:rgb(213,94,0);stroke:black;stroke-width:1.71px;"/>
                </g>
                <g transform="matrix(0.833333,0,0,0.833333,-512.683,123.172)">
                    <circle cx="1452.76" cy="744.094" r="35.433" style="fill:rgb(245,195,68);stroke:black;stroke-width:1.71px;"/>
                </g>
                <g transform="matrix(1.10661,-0.403864,0.48977,1.34199,-1197.53,-651.51)">
                    <ellipse cx="607.538" cy="1208.86" rx="126.755" ry="158.192" style="fill:none;stroke:black;stroke-width:4.55px;stroke-dasharray:4.55,9.09,0,0,0,0;"/>
                </g>
                <g transform="matrix(0.659567,-0.240714,0.455364,1.24772,6.73905,-670.731)">
                    <ellipse cx="607.538" cy="1208.86" rx="126.755" ry="158.192" style="fill:none;stroke:black;stroke-width:5.6px;stroke-dasharray:5.6,11.21,0,0,0,0;"/>
                </g>
                <g transform="matrix(0.476463,-0.307523,0.561551,0.870042,-94.5601,-67.6818)">
                    <ellipse cx="607.538" cy="1208.86" rx="126.755" ry="158.192" style="fill:none;stroke:black;stroke-width:7.13px;stroke-dasharray:7.13,14.26,0,0,0,0;"/>
                </g>
                <g transform="matrix(1.12867,-0.0232396,0.0279387,1.35688,-100.455,-806.021)">
                    <ellipse cx="607.538" cy="1208.86" rx="126.755" ry="158.192" style="fill:none;stroke:black;stroke-width:4.77px;stroke-dasharray:4.77,9.54,0,0,0,0;"/>
                </g>
                <g transform="matrix(1.12014,-0.241024,0.300511,1.39661,-1287.17,-723.406)">
                    <ellipse cx="607.538" cy="1208.86" rx="126.755" ry="158.192" style="fill:none;stroke:black;stroke-width:4.6px;stroke-dasharray:4.6,9.19,0,0,0,0;"/>
                </g>
                <g transform="matrix(0.833333,0,0,0.833333,-492.942,232.846)">
                    <circle cx="1452.76" cy="744.094" r="35.433" style="fill:rgb(245,195,68);stroke:black;stroke-width:1.71px;"/>
                </g>
                <g transform="matrix(0.833333,0,0,0.833333,-353.065,182.227)">
                    <circle cx="1452.76" cy="744.094" r="35.433" style="fill:rgb(213,94,0);stroke:black;stroke-width:1.71px;"/>
                </g>
            </g>
            <g transform="matrix(0.7,0,0,0.7,-66.1417,-59.0551)">
                <g transform="matrix(0.527214,0,0,0.767172,1060.54,-133.28)">
                    <path d="M551.912,1559.33L1672.05,1559.33" style="fill:none;stroke:black;stroke-width:9.04px;"/>
                </g>
                <g transform="matrix(0.527214,0,0,0.767172,1060.54,-133.28)">
                    <path d="M551.912,1559.33L551.912,789.55" style="fill:none;stroke:black;stroke-width:9.04px;"/>
                </g>
            </g>
        </g>
        <g transform="matrix(1,0,0,1,-606.748,751.061)">
            <g transform="matrix(0.7,0,0,0.7,551.28,-50.7874)">
                <g transform="matrix(0.833333,0,0,0.833333,-251.828,131.609)">
                    <circle cx="1452.76" cy="744.094" r="35.433" style="fill:rgb(93,155,182);stroke:black;stroke-width:1.71px;"/>
                </g>
                <g transform="matrix(0.833333,0,0,0.833333,-307.087,-59.0551)">
                    <circle cx="1452.76" cy="744.094" r="35.433" style="fill:rgb(93,155,182);stroke:black;stroke-width:1.71px;"/>
                </g>
                <g transform="matrix(0.833333,0,0,0.833333,-205.427,211.755)">
                    <circle cx="1452.76" cy="744.094" r="35.433" style="fill:rgb(93,155,182);stroke:black;stroke-width:1.71px;"/>
                </g>
                <g transform="matrix(0.833333,0,0,0.833333,-234.955,30.3712)">
                    <circle cx="1452.76" cy="744.094" r="35.433" style="fill:rgb(93,155,182);stroke:black;stroke-width:1.71px;"/>
                </g>
                <g transform="matrix(0.833333,0,0,0.833333,-281.355,258.155)">
                    <circle cx="1452.76" cy="744.094" r="35.433" style="fill:rgb(93,155,182);stroke:black;stroke-width:1.71px;"/>
                </g>
                <g transform="matrix(0.833333,0,0,0.833333,-673.228,295.276)">
                    <circle cx="1452.76" cy="744.094" r="35.433" style="fill:rgb(245,195,68);stroke:black;stroke-width:1.71px;"/>
                </g>
                <g transform="matrix(0.833333,0,0,0.833333,-555.54,367.829)">
                    <circle cx="1452.76" cy="744.094" r="35.433" style="fill:rgb(245,195,68);stroke:black;stroke-width:1.71px;"/>
                </g>
                <g transform="matrix(0.833333,0,0,0.833333,-600.028,242.913)">
                    <circle cx="1452.76" cy="744.094" r="35.433" style="fill:rgb(245,195,68);stroke:black;stroke-width:1.71px;"/>
                </g>
                <g transform="matrix(0.833333,0,0,0.833333,-655.512,59.8988)">
                    <circle cx="1452.76" cy="744.094" r="35.433" style="fill:rgb(245,195,68);stroke:black;stroke-width:1.71px;"/>
                </g>
                <g transform="matrix(0.833333,0,0,0.833333,-614.595,165.354)">
                    <circle cx="1452.76" cy="744.094" r="35.433" style="fill:rgb(245,195,68);stroke:black;stroke-width:1.71px;"/>
                </g>
                <g transform="matrix(0.833333,0,0,0.833333,-560.067,53.1496)">
                    <circle cx="1452.76" cy="744.094" r="35.433" style="fill:rgb(245,195,68);stroke:black;stroke-width:1.71px;"/>
                </g>
                <g transform="matrix(0.833333,0,0,0.833333,-382.593,89.4263)">
                    <circle cx="1452.76" cy="744.094" r="35.433" style="fill:rgb(93,155,182);stroke:black;stroke-width:1.71px;"/>
                </g>
                <g transform="matrix(0.833333,0,0,0.833333,-512.683,123.172)">
                    <circle cx="1452.76" cy="744.094" r="35.433" style="fill:rgb(245,195,68);stroke:black;stroke-width:1.71px;"/>
                </g>
                <g transform="matrix(0.833333,0,0,0.833333,-492.942,232.846)">
                    <circle cx="1452.76" cy="744.094" r="35.433" style="fill:rgb(245,195,68);stroke:black;stroke-width:1.71px;"/>
                </g>
                <g transform="matrix(0.833333,0,0,0.833333,-353.065,182.227)">
                    <circle cx="1452.76" cy="744.094" r="35.433" style="fill:rgb(93,155,182);stroke:black;stroke-width:1.71px;"/>
                </g>
            </g>
            <g transform="matrix(0.7,0,0,0.7,-66.1417,-59.0551)">
                <g transform="matrix(0.527214,0,0,0.767172,1060.54,-133.28)">
                    <path d="M551.912,1559.33L1672.05,1559.33" style="fill:none;stroke:black;stroke-width:9.04px;"/>
                </g>
                <g transform="matrix(0.527214,0,0,0.767172,1060.54,-133.28)">
                    <path d="M551.912,1559.33L551.912,789.55" style="fill:none;stroke:black;stroke-width:9.04px;"/>
                </g>
            </g>
        </g>
    </g>
</svg>
