<?xml version="1.0" encoding="UTF-8" standalone="no"?>
<!DOCTYPE svg PUBLIC "-//W3C//DTD SVG 1.1//EN" "http://www.w3.org/Graphics/SVG/1.1/DTD/svg11.dtd">
<svg width="100%" height="100%" viewBox="0 0 978 750" version="1.1" xmlns="http://www.w3.org/2000/svg" xmlns:xlink="http://www.w3.org/1999/xlink" xml:space="preserve" xmlns:serif="http://www.serif.com/" style="fill-rule:evenodd;clip-rule:evenodd;stroke-linecap:round;stroke-linejoin:round;stroke-miterlimit:1.5;">
    <g transform="matrix(1,0,0,1,-582.283,-897.638)">
        <g>
            <g transform="matrix(0.766791,0,0,1,238.216,-236.493)">
                <path d="M551.912,1559.33L1672.05,1559.33" style="fill:none;stroke:rgb(200,200,200);stroke-width:4.68px;"/>
            </g>
            <g transform="matrix(0.766791,0,0,1,238.216,-354.603)">
                <path d="M551.912,1559.33L1672.05,1559.33" style="fill:none;stroke:rgb(200,200,200);stroke-width:4.68px;"/>
            </g>
            <g transform="matrix(0.766791,0,0,1,238.216,-472.713)">
                <path d="M551.912,1559.33L1672.05,1559.33" style="fill:none;stroke:rgb(200,200,200);stroke-width:4.68px;"/>
            </g>
            <g transform="matrix(0.766791,0,0,1,238.216,-590.823)">
                <path d="M551.912,1559.33L1672.05,1559.33" style="fill:none;stroke:rgb(200,200,200);stroke-width:4.68px;"/>
            </g>
            <g transform="matrix(0.766791,0,0,1,238.216,-118.382)">
                <path d="M551.912,1559.33L1672.05,1559.33" style="fill:none;stroke:rgb(200,200,200);stroke-width:4.68px;"/>
            </g>
            <g transform="matrix(1,0,0,0.836877,117.181,368.314)">
                <path d="M662.347,688.953L662.347,1422.84" style="fill:none;stroke:rgb(200,200,200);stroke-width:4.52px;"/>
            </g>
            <g transform="matrix(1,0,0,0.836877,235.291,368.314)">
                <path d="M662.347,688.953L662.347,1422.84" style="fill:none;stroke:rgb(200,200,200);stroke-width:4.52px;"/>
            </g>
            <g transform="matrix(1,0,0,0.836877,353.401,368.314)">
                <path d="M662.347,688.953L662.347,1422.84" style="fill:none;stroke:rgb(200,200,200);stroke-width:4.52px;"/>
            </g>
            <g transform="matrix(1,0,0,0.836877,471.511,368.314)">
                <path d="M662.347,688.953L662.347,1422.84" style="fill:none;stroke:rgb(200,200,200);stroke-width:4.52px;"/>
            </g>
            <g transform="matrix(1,0,0,0.836877,589.621,368.314)">
                <path d="M662.347,688.953L662.347,1422.84" style="fill:none;stroke:rgb(200,200,200);stroke-width:4.52px;"/>
            </g>
            <g transform="matrix(1,0,0,0.836877,707.732,368.314)">
                <path d="M662.347,688.953L662.347,1422.84" style="fill:none;stroke:rgb(200,200,200);stroke-width:4.52px;"/>
            </g>
            <g transform="matrix(1,0,0,0.836877,825.842,368.314)">
                <path d="M662.347,688.953L662.347,1422.84" style="fill:none;stroke:rgb(200,200,200);stroke-width:4.52px;"/>
            </g>
        </g>
        <g>
            <g transform="matrix(1,0,0,0.885158,-0.929701,299.617)">
                <path d="M662.347,688.953L662.347,1422.84" style="fill:none;stroke:black;stroke-width:4.41px;"/>
            </g>
            <g transform="matrix(0.790821,0,0,1,224.954,-0.272201)">
                <path d="M551.912,1559.33L1672.05,1559.33" style="fill:none;stroke:black;stroke-width:4.62px;"/>
            </g>
        </g>
        <g>
            <g transform="matrix(1,0,0,0.160938,-0.929701,1330.07)">
                <g transform="matrix(1,-0,-0,6.21358,583.213,-2686.93)">
                    <path d="M91.634,568.307L79.134,543.307L66.634,568.307C72.884,562.057 85.384,562.057 91.634,568.307Z" style="fill:rgb(93,155,182);"/>
                    <path d="M79.134,563.307L79.134,661.417" style="fill:none;stroke:rgb(93,155,182);stroke-width:4.17px;"/>
                </g>
            </g>
            <g transform="matrix(0.105443,0,0,1,603.222,-0.272201)">
                <g transform="matrix(9.48381,-0,-0,1,-198.579,897.91)">
                    <path d="M172.244,648.917L197.244,661.417L172.244,673.917C178.494,667.667 178.494,655.167 172.244,648.917Z" style="fill:rgb(93,155,182);"/>
                    <path d="M79.134,661.417L177.244,661.417" style="fill:none;stroke:rgb(93,155,182);stroke-width:4.17px;"/>
                </g>
            </g>
        </g>
        <g transform="matrix(1,0,0,1,5.74074,-75.7531)">
            <g transform="matrix(50,0,0,50,775.423,1687.1)">
            </g>
            <text x="759.48px" y="1687.1px" style="font-family:'CMUSerif-Bold', 'CMU Serif';font-weight:700;font-size:50px;fill:rgb(93,155,182);">i</text>
        </g>
        <g transform="matrix(1,0,0,1,-139.625,-211.415)">
            <g transform="matrix(50,0,0,50,777.009,1687.1)">
            </g>
            <text x="759.48px" y="1687.1px" style="font-family:'CMUSerif-Bold', 'CMU Serif';font-weight:700;font-size:50px;fill:rgb(93,155,182);">j</text>
        </g>
        <g transform="matrix(1,0,0,1,52.1828,-387.731)">
            <text x="759.48px" y="1687.1px" style="font-family:'CMUSerif-Bold', 'CMU Serif';font-weight:700;font-size:50px;fill:rgb(93,155,182);">r</text>
            <g transform="matrix(29.15,0,0,29.15,797.688,1703.75)">
            </g>
            <text x="783.113px" y="1703.75px" style="font-family:'CMUSerif-Roman', 'CMU Serif';font-weight:500;font-size:29.15px;fill:rgb(93,155,182);">1</text>
        </g>
        <g transform="matrix(1,0,0,1,331.442,-309.683)">
            <text x="759.48px" y="1687.1px" style="font-family:'CMUSerif-Bold', 'CMU Serif';font-weight:700;font-size:50px;fill:rgb(93,155,182);">r</text>
            <g transform="matrix(29.15,0,0,29.15,797.688,1703.75)">
            </g>
            <text x="783.113px" y="1703.75px" style="font-family:'CMUSerif-Roman', 'CMU Serif';font-weight:500;font-size:29.15px;fill:rgb(93,155,182);">2</text>
        </g>
        <g transform="matrix(1,0,0,1,326.098,-176.342)">
            <text x="759.48px" y="1687.1px" style="font-family:'CMUSerif-Bold', 'CMU Serif';font-weight:700;font-size:50px;fill:rgb(93,155,182);">r</text>
            <g transform="matrix(29.15,0,0,29.15,797.688,1703.75)">
            </g>
            <text x="783.113px" y="1703.75px" style="font-family:'CMUSerif-Roman', 'CMU Serif';font-weight:500;font-size:29.15px;fill:rgb(93,155,182);">3</text>
        </g>
        <g transform="matrix(13.444,0,0,9.26847,-5322.43,-10482.6)">
            <rect x="439.209" y="1227.85" width="72.743" height="80.92" style="fill:none;"/>
        </g>
        <g>
            <g transform="matrix(1.10243,-0.126192,-0.126192,1.15547,543.449,1.77759)">
                <g transform="matrix(0.918572,0.10032,0.10032,0.876405,125.545,789.032)">
                    <path d="M292.995,205.749L315.354,188.976L315.357,216.927C312.561,208.542 301.38,202.953 292.995,205.749Z" style="fill:rgb(245,195,68);"/>
                    <path d="M79.314,661.178C79.314,661.178 263.338,293.036 306.412,206.866" style="fill:none;stroke:rgb(245,195,68);stroke-width:4.17px;stroke-dasharray:4.17,8.33,0,0,0,0;"/>
                </g>
            </g>
            <g transform="matrix(1.10243,-0.126192,-0.126192,1.15547,547.294,1.01284)">
                <g transform="matrix(0.918572,0.10032,0.10032,0.876405,122.09,789.317)">
                    <path d="M759.844,307.255L787.795,307.262L771.019,329.618C773.816,321.234 768.229,310.052 759.844,307.255Z" style="fill:rgb(245,195,68);"/>
                    <path d="M79.31,661.263C79.31,661.263 659.845,371.193 769.904,316.202" style="fill:none;stroke:rgb(245,195,68);stroke-width:4.17px;stroke-dasharray:4.17,8.33,0,0,0,0;"/>
                </g>
            </g>
            <g transform="matrix(1.10243,-0.126192,-0.126192,1.15547,549.96,-2.6554)">
                <g transform="matrix(0.918572,0.10032,0.10032,0.876405,120.009,792.264)">
                    <path d="M642.719,535.952L669.685,543.307L647.621,560.466C652.525,553.112 650.074,540.855 642.719,535.952Z" style="fill:rgb(245,195,68);"/>
                    <path d="M79.086,661.406C79.086,661.406 547.674,567.705 650.073,547.229" style="fill:none;stroke:rgb(245,195,68);stroke-width:4.17px;stroke-dasharray:4.17,8.33,0,0,0,0;"/>
                </g>
            </g>
        </g>
    </g>
</svg>
