<?xml version="1.0" encoding="UTF-8" standalone="no"?>
<!DOCTYPE svg PUBLIC "-//W3C//DTD SVG 1.1//EN" "http://www.w3.org/Graphics/SVG/1.1/DTD/svg11.dtd">
<svg width="100%" height="100%" viewBox="0 0 1794 998" version="1.1" xmlns="http://www.w3.org/2000/svg" xmlns:xlink="http://www.w3.org/1999/xlink" xml:space="preserve" xmlns:serif="http://www.serif.com/" style="fill-rule:evenodd;clip-rule:evenodd;stroke-linecap:round;stroke-linejoin:round;stroke-miterlimit:1.5;">
    <g transform="matrix(1,0,0,1,-582.283,-649.945)">
        <g>
            <g transform="matrix(1.52892,0,0,1,-207.215,-236.493)">
                <path d="M551.912,1559.33L1672.05,1559.33" style="fill:none;stroke:rgb(200,200,200);stroke-width:3.23px;"/>
            </g>
            <g transform="matrix(1.52892,0,0,1,-207.215,-354.603)">
                <path d="M551.912,1559.33L1672.05,1559.33" style="fill:none;stroke:rgb(200,200,200);stroke-width:3.23px;"/>
            </g>
            <g transform="matrix(1.52892,0,0,1,-207.215,-472.713)">
                <path d="M551.912,1559.33L1672.05,1559.33" style="fill:none;stroke:rgb(200,200,200);stroke-width:3.23px;"/>
            </g>
            <g transform="matrix(1.52892,0,0,1,-207.215,-590.823)">
                <path d="M551.912,1559.33L1672.05,1559.33" style="fill:none;stroke:rgb(200,200,200);stroke-width:3.23px;"/>
            </g>
            <g transform="matrix(1.52892,0,0,1,-207.215,-708.934)">
                <path d="M551.912,1559.33L1672.05,1559.33" style="fill:none;stroke:rgb(200,200,200);stroke-width:3.23px;"/>
            </g>
            <g transform="matrix(1.52892,0,0,1,-207.215,-827.044)">
                <path d="M551.912,1559.33L1672.05,1559.33" style="fill:none;stroke:rgb(200,200,200);stroke-width:3.23px;"/>
            </g>
            <g transform="matrix(1.52892,0,0,1,-207.215,-118.382)">
                <path d="M551.912,1559.33L1672.05,1559.33" style="fill:none;stroke:rgb(200,200,200);stroke-width:3.23px;"/>
            </g>
            <g transform="matrix(1,0,0,1.15875,117.181,-89.664)">
                <path d="M662.347,688.953L662.347,1422.84" style="fill:none;stroke:rgb(200,200,200);stroke-width:3.85px;"/>
            </g>
            <g transform="matrix(1,0,0,1.15875,-0.929701,-89.664)">
                <path d="M662.347,688.953L662.347,1422.84" style="fill:none;stroke:rgb(200,200,200);stroke-width:3.85px;"/>
            </g>
            <g transform="matrix(1,0,0,1.15875,235.291,-89.664)">
                <path d="M662.347,688.953L662.347,1422.84" style="fill:none;stroke:rgb(200,200,200);stroke-width:3.85px;"/>
            </g>
            <g transform="matrix(1,0,0,1.15875,353.401,-89.664)">
                <path d="M662.347,688.953L662.347,1422.84" style="fill:none;stroke:rgb(200,200,200);stroke-width:3.85px;"/>
            </g>
            <g transform="matrix(1,0,0,1.15875,471.511,-89.664)">
                <path d="M662.347,688.953L662.347,1422.84" style="fill:none;stroke:rgb(200,200,200);stroke-width:3.85px;"/>
            </g>
            <g transform="matrix(1,0,0,1.15875,589.621,-89.664)">
                <path d="M662.347,688.953L662.347,1422.84" style="fill:none;stroke:rgb(200,200,200);stroke-width:3.85px;"/>
            </g>
            <g transform="matrix(1,0,0,1.15875,707.732,-89.664)">
                <path d="M662.347,688.953L662.347,1422.84" style="fill:none;stroke:rgb(200,200,200);stroke-width:3.85px;"/>
            </g>
            <g transform="matrix(1,0,0,1.15875,825.842,-89.664)">
                <path d="M662.347,688.953L662.347,1422.84" style="fill:none;stroke:rgb(200,200,200);stroke-width:3.85px;"/>
            </g>
            <g transform="matrix(1,0,0,1.15875,943.952,-89.664)">
                <path d="M662.347,688.953L662.347,1422.84" style="fill:none;stroke:rgb(200,200,200);stroke-width:3.85px;"/>
            </g>
            <g transform="matrix(1,0,0,1.15875,1062.06,-89.664)">
                <path d="M662.347,688.953L662.347,1422.84" style="fill:none;stroke:rgb(200,200,200);stroke-width:3.85px;"/>
            </g>
            <g transform="matrix(1,0,0,1.15875,1180.17,-89.664)">
                <path d="M662.347,688.953L662.347,1422.84" style="fill:none;stroke:rgb(200,200,200);stroke-width:3.85px;"/>
            </g>
            <g transform="matrix(1,0,0,1.15875,1298.28,-89.664)">
                <path d="M662.347,688.953L662.347,1422.84" style="fill:none;stroke:rgb(200,200,200);stroke-width:3.85px;"/>
            </g>
            <g transform="matrix(1,0,0,1.15875,1416.39,-89.664)">
                <path d="M662.347,688.953L662.347,1422.84" style="fill:none;stroke:rgb(200,200,200);stroke-width:3.85px;"/>
            </g>
            <g transform="matrix(1,0,0,1.15875,1534.5,-89.664)">
                <path d="M662.347,688.953L662.347,1422.84" style="fill:none;stroke:rgb(200,200,200);stroke-width:3.85px;"/>
            </g>
            <g transform="matrix(1,0,0,1.15875,1652.61,-89.664)">
                <path d="M662.347,688.953L662.347,1422.84" style="fill:none;stroke:rgb(200,200,200);stroke-width:3.85px;"/>
            </g>
        </g>
        <g>
            <g transform="matrix(1,0,0,1.20703,825.842,-158.361)">
                <path d="M662.347,688.953L662.347,1422.84" style="fill:none;stroke:black;stroke-width:3.76px;"/>
            </g>
            <g transform="matrix(1.58164,0,0,2.06667,-270.565,-1663.55)">
                <path d="M551.912,1559.33L1672.05,1559.33" style="fill:none;stroke:black;stroke-width:2.26px;"/>
            </g>
        </g>
        <g transform="matrix(6.12323e-17,-1,1,6.12323e-17,-70.8661,2220.42)">
            <g transform="matrix(1,0,0,0.160938,-0.929701,1330.07)">
                <g transform="matrix(6.12323e-17,6.21358,-1,3.80472e-16,1571.41,-4206.08)">
                    <path d="M812.795,896.562L787.795,909.062L812.795,921.562C806.545,915.312 806.545,902.812 812.795,896.562Z" style="fill:rgb(93,155,182);"/>
                    <path d="M807.795,909.062L905.906,909.062" style="fill:none;stroke:rgb(93,155,182);stroke-width:4.17px;"/>
                </g>
            </g>
            <g transform="matrix(0.105443,0,0,1,603.222,-0.272201)">
                <g transform="matrix(5.80716e-16,1,-9.48381,6.12323e-17,9173.29,653.422)">
                    <path d="M893.406,815.952L905.906,790.952L918.406,815.952C912.156,809.702 899.656,809.702 893.406,815.952Z" style="fill:rgb(93,155,182);"/>
                    <path d="M905.906,909.062L905.906,810.952" style="fill:none;stroke:rgb(93,155,182);stroke-width:4.17px;"/>
                </g>
            </g>
        </g>
        <g transform="matrix(1,0,0,1,745.402,-206.463)">
            <text x="759.48px" y="1687.1px" style="font-family:'CMUSerif-Bold', 'CMU Serif';font-weight:700;font-size:50px;fill:rgb(93,155,182);">i</text>
            <g transform="matrix(50,0,0,50,793.172,1687.1)">
            </g>
            <text x="775.423px" y="1687.1px" style="font-family:'CMUSerif-BoldItalic', 'CMU Serif';font-weight:700;font-style:italic;font-size:50px;fill:rgb(93,155,182);">&apos;</text>
        </g>
        <g transform="matrix(1,0,0,1,613.406,-74.4145)">
            <text x="759.48px" y="1687.1px" style="font-family:'CMUSerif-Bold', 'CMU Serif';font-weight:700;font-size:50px;fill:rgb(93,155,182);">j</text>
            <g transform="matrix(50,0,0,50,794.758,1687.1)">
            </g>
            <text x="777.009px" y="1687.1px" style="font-family:'CMUSerif-BoldItalic', 'CMU Serif';font-weight:700;font-style:italic;font-size:50px;fill:rgb(93,155,182);">&apos;</text>
        </g>
        <g transform="matrix(1,0,0,1,447.243,-294.26)">
            <text x="759.48px" y="1687.1px" style="font-family:'CMUSerif-Bold', 'CMU Serif';font-weight:700;font-size:50px;fill:rgb(93,155,182);">s</text>
            <g transform="matrix(29.15,0,0,29.15,796.687,1703.75)">
            </g>
            <text x="782.112px" y="1703.75px" style="font-family:'CMUSerif-Roman', 'CMU Serif';font-weight:500;font-size:29.15px;fill:rgb(93,155,182);">1</text>
        </g>
        <g transform="matrix(1,0,0,1,524.85,-573.96)">
            <text x="759.48px" y="1687.1px" style="font-family:'CMUSerif-Bold', 'CMU Serif';font-weight:700;font-size:50px;fill:rgb(93,155,182);">s</text>
            <g transform="matrix(29.15,0,0,29.15,796.687,1703.75)">
            </g>
            <text x="782.112px" y="1703.75px" style="font-family:'CMUSerif-Roman', 'CMU Serif';font-weight:500;font-size:29.15px;fill:rgb(93,155,182);">2</text>
        </g>
        <g transform="matrix(1,0,0,1,658.397,-569.05)">
            <text x="759.48px" y="1687.1px" style="font-family:'CMUSerif-Bold', 'CMU Serif';font-weight:700;font-size:50px;fill:rgb(93,155,182);">s</text>
            <g transform="matrix(29.15,0,0,29.15,796.687,1703.75)">
            </g>
            <text x="782.112px" y="1703.75px" style="font-family:'CMUSerif-Roman', 'CMU Serif';font-weight:500;font-size:29.15px;fill:rgb(93,155,182);">3</text>
        </g>
        <g transform="matrix(13.444,0,0,12.3294,-5322.43,-14488.7)">
            <rect x="439.209" y="1227.85" width="72.743" height="80.92" style="fill:none;"/>
        </g>
        <g transform="matrix(6.12323e-17,-1,1,6.12323e-17,-70.8661,2220.42)">
            <g transform="matrix(1.10243,-0.126192,-0.126192,1.15547,543.449,1.77759)">
                <g transform="matrix(0.10032,0.876405,-0.918572,-0.10032,1008.75,673.897)">
                    <path d="M450.237,695.2L433.465,672.842L461.415,672.839C453.03,675.635 447.441,686.815 450.237,695.2Z" style="fill:rgb(245,195,68);"/>
                    <path d="M905.666,908.881C905.666,908.881 537.525,724.858 451.354,681.784" style="fill:none;stroke:rgb(245,195,68);stroke-width:4.17px;stroke-dasharray:4.17,8.33,0,0,0,0;"/>
                </g>
            </g>
            <g transform="matrix(1.10243,-0.126192,-0.126192,1.15547,547.294,1.01284)">
                <g transform="matrix(0.10032,0.876405,-0.918572,-0.10032,1005.29,674.182)">
                    <path d="M551.743,228.351L551.751,200.401L574.107,217.177C565.722,214.38 554.54,219.967 551.743,228.351Z" style="fill:rgb(245,195,68);"/>
                    <path d="M905.751,908.886C905.751,908.886 615.682,328.35 560.69,218.292" style="fill:none;stroke:rgb(245,195,68);stroke-width:4.17px;stroke-dasharray:4.17,8.33,0,0,0,0;"/>
                </g>
            </g>
            <g transform="matrix(1.10243,-0.126192,-0.126192,1.15547,549.96,-2.6554)">
                <g transform="matrix(0.10032,0.876405,-0.918572,-0.10032,1003.21,677.129)">
                    <path d="M780.44,345.477L787.795,318.511L804.955,340.574C797.6,335.671 785.343,338.122 780.44,345.477Z" style="fill:rgb(245,195,68);"/>
                    <path d="M905.894,909.11C905.894,909.11 812.193,440.522 791.717,338.123" style="fill:none;stroke:rgb(245,195,68);stroke-width:4.17px;stroke-dasharray:4.17,8.33,0,0,0,0;"/>
                </g>
            </g>
        </g>
    </g>
</svg>
