<?xml version="1.0" encoding="UTF-8" standalone="no"?>
<!DOCTYPE svg PUBLIC "-//W3C//DTD SVG 1.1//EN" "http://www.w3.org/Graphics/SVG/1.1/DTD/svg11.dtd">
<svg width="100%" height="100%" viewBox="0 0 978 750" version="1.1" xmlns="http://www.w3.org/2000/svg" xmlns:xlink="http://www.w3.org/1999/xlink" xml:space="preserve" xmlns:serif="http://www.serif.com/" style="fill-rule:evenodd;clip-rule:evenodd;stroke-linecap:round;stroke-linejoin:round;stroke-miterlimit:1.5;">
    <g transform="matrix(1,0,0,1,-582.283,-897.638)">
        <g transform="matrix(13.444,0,0,9.26847,-5322.43,-10482.6)">
            <rect x="439.209" y="1227.85" width="72.743" height="80.92" style="fill:none;"/>
        </g>
        <g transform="matrix(1.33333,0,0,1.33333,-164.961,-451.772)">
            <g>
                <g transform="matrix(0.44286,0,0,1,416.998,-236.493)">
                    <path d="M551.912,1559.33L1672.05,1559.33" style="fill:none;stroke:rgb(200,200,200);stroke-width:4.04px;"/>
                </g>
                <g transform="matrix(0.44286,0,0,1,416.998,-354.603)">
                    <path d="M551.912,1559.33L1672.05,1559.33" style="fill:none;stroke:rgb(200,200,200);stroke-width:4.04px;"/>
                </g>
                <g transform="matrix(0.44286,0,0,1,416.998,-472.713)">
                    <path d="M551.912,1559.33L1672.05,1559.33" style="fill:none;stroke:rgb(200,200,200);stroke-width:4.04px;"/>
                </g>
                <g transform="matrix(0.44286,0,0,1,416.998,-118.382)">
                    <path d="M551.912,1559.33L1672.05,1559.33" style="fill:none;stroke:rgb(200,200,200);stroke-width:4.04px;"/>
                </g>
                <g transform="matrix(1,0,0,0.675939,117.181,597.302)">
                    <path d="M662.347,688.953L662.347,1422.84" style="fill:none;stroke:rgb(200,200,200);stroke-width:3.66px;"/>
                </g>
                <g transform="matrix(1,0,0,0.675939,235.291,597.302)">
                    <path d="M662.347,688.953L662.347,1422.84" style="fill:none;stroke:rgb(200,200,200);stroke-width:3.66px;"/>
                </g>
                <g transform="matrix(1,0,0,0.675939,353.401,597.302)">
                    <path d="M662.347,688.953L662.347,1422.84" style="fill:none;stroke:rgb(200,200,200);stroke-width:3.66px;"/>
                </g>
                <g transform="matrix(1,0,0,0.675939,471.511,597.302)">
                    <path d="M662.347,688.953L662.347,1422.84" style="fill:none;stroke:rgb(200,200,200);stroke-width:3.66px;"/>
                </g>
            </g>
            <g transform="matrix(4.37906,0,0,5.3029,-1016.68,-5238.21)">
                <path d="M383.21,1192.71C442.754,1192.71 491.097,1232.63 491.097,1281.8" style="fill:none;stroke:rgb(93,155,182);stroke-width:0.64px;stroke-linejoin:miter;stroke-miterlimit:2;stroke-dasharray:0.64,1.29,0,0,0,0;"/>
            </g>
            <g>
                <g transform="matrix(1,0,0,0.72422,-0.929701,528.606)">
                    <path d="M662.347,688.953L662.347,1422.84" style="fill:none;stroke:black;stroke-width:3.58px;"/>
                </g>
                <g transform="matrix(0.474493,0,0,1,399.539,-0.272201)">
                    <path d="M551.912,1559.33L1672.05,1559.33" style="fill:none;stroke:black;stroke-width:3.99px;"/>
                </g>
            </g>
            <g>
                <g transform="matrix(0.333192,0,0,0.525835,593.311,363.418)">
                    <ellipse cx="325.068" cy="1499.2" rx="35.448" ry="22.461" style="fill:rgb(245,195,68);"/>
                </g>
                <g transform="matrix(0.333192,0,0,0.525835,649.139,461.429)">
                    <ellipse cx="325.068" cy="1499.2" rx="35.448" ry="22.461" style="fill:rgb(245,195,68);"/>
                </g>
                <g transform="matrix(0.333192,0,0,0.525835,797.511,560.096)">
                    <ellipse cx="325.068" cy="1499.2" rx="35.448" ry="22.461" style="fill:rgb(245,195,68);"/>
                </g>
                <g transform="matrix(0.333192,0,0,0.525835,717.867,630.362)">
                    <ellipse cx="325.068" cy="1499.2" rx="35.448" ry="22.461" style="fill:rgb(245,195,68);"/>
                </g>
                <g transform="matrix(0.333192,0,0,0.525835,784.773,649.709)">
                    <ellipse cx="325.068" cy="1499.2" rx="35.448" ry="22.461" style="fill:rgb(245,195,68);"/>
                </g>
                <g transform="matrix(0.333192,0,0,0.525835,751.175,553.396)">
                    <ellipse cx="325.068" cy="1499.2" rx="35.448" ry="22.461" style="fill:rgb(245,195,68);"/>
                </g>
                <g transform="matrix(0.333192,0,0,0.525835,714.374,369.137)">
                    <ellipse cx="325.068" cy="1499.2" rx="35.448" ry="22.461" style="fill:rgb(245,195,68);"/>
                </g>
                <g transform="matrix(0.333192,0,0,0.525835,860.055,506.438)">
                    <ellipse cx="325.068" cy="1499.2" rx="35.448" ry="22.461" style="fill:rgb(245,195,68);"/>
                </g>
                <g transform="matrix(0.333192,0,0,0.525835,690.729,585.396)">
                    <ellipse cx="325.068" cy="1499.2" rx="35.448" ry="22.461" style="fill:rgb(245,195,68);"/>
                </g>
                <g transform="matrix(0.333192,0,0,0.525835,595.895,571.92)">
                    <ellipse cx="325.068" cy="1499.2" rx="35.448" ry="22.461" style="fill:rgb(245,195,68);"/>
                </g>
                <g transform="matrix(0.333192,0,0,0.525835,600.991,676.408)">
                    <ellipse cx="325.068" cy="1499.2" rx="35.448" ry="22.461" style="fill:rgb(245,195,68);"/>
                </g>
                <g transform="matrix(0.333192,0,0,0.525835,704.033,727.759)">
                    <ellipse cx="325.068" cy="1499.2" rx="35.448" ry="22.461" style="fill:rgb(245,195,68);"/>
                </g>
                <g transform="matrix(0.333192,0,0,0.525835,811.8,727.759)">
                    <ellipse cx="325.068" cy="1499.2" rx="35.448" ry="22.461" style="fill:rgb(245,195,68);"/>
                </g>
                <g transform="matrix(0.333192,0,0,0.525835,874.358,657.317)">
                    <ellipse cx="325.068" cy="1499.2" rx="35.448" ry="22.461" style="fill:rgb(245,195,68);"/>
                </g>
                <g transform="matrix(0.333192,0,0,0.525835,968.168,726.978)">
                    <ellipse cx="325.068" cy="1499.2" rx="35.448" ry="22.461" style="fill:rgb(245,195,68);"/>
                </g>
                <g transform="matrix(0.333192,0,0,0.525835,943.456,618.086)">
                    <ellipse cx="325.068" cy="1499.2" rx="35.448" ry="22.461" style="fill:rgb(245,195,68);"/>
                </g>
                <g transform="matrix(0.333192,0,0,0.525835,864.247,579.413)">
                    <ellipse cx="325.068" cy="1499.2" rx="35.448" ry="22.461" style="fill:rgb(245,195,68);"/>
                </g>
                <g transform="matrix(0.333192,0,0,0.525835,775.482,450.205)">
                    <ellipse cx="325.068" cy="1499.2" rx="35.448" ry="22.461" style="fill:rgb(245,195,68);"/>
                </g>
                <g transform="matrix(0.333192,0,0,0.525835,707.202,450.205)">
                    <ellipse cx="325.068" cy="1499.2" rx="35.448" ry="22.461" style="fill:rgb(245,195,68);"/>
                </g>
                <g transform="matrix(0.333192,0,0,0.525835,655.212,405.225)">
                    <ellipse cx="325.068" cy="1499.2" rx="35.448" ry="22.461" style="fill:rgb(245,195,68);"/>
                </g>
            </g>
            <g>
                <g transform="matrix(0.333192,0,0,0.525835,837.898,343.666)">
                    <ellipse cx="325.068" cy="1499.2" rx="35.448" ry="22.461" style="fill:rgb(213,94,0);"/>
                </g>
                <g transform="matrix(0.333192,0,0,0.525835,940.539,343.291)">
                    <ellipse cx="325.068" cy="1499.2" rx="35.448" ry="22.461" style="fill:rgb(213,94,0);"/>
                </g>
                <g transform="matrix(0.333192,0,0,0.525835,948.654,411.417)">
                    <ellipse cx="325.068" cy="1499.2" rx="35.448" ry="22.461" style="fill:rgb(213,94,0);"/>
                </g>
                <g transform="matrix(0.333192,0,0,0.525835,992.73,469.978)">
                    <ellipse cx="325.068" cy="1499.2" rx="35.448" ry="22.461" style="fill:rgb(213,94,0);"/>
                </g>
                <g transform="matrix(0.333192,0,0,0.525835,1013.52,336.11)">
                    <ellipse cx="325.068" cy="1499.2" rx="35.448" ry="22.461" style="fill:rgb(213,94,0);"/>
                </g>
            </g>
        </g>
    </g>
</svg>
